<?xml version="1.0" encoding="UTF-8" standalone="no"?>
<svg width="13px" height="12px" viewBox="0 0 13 12" version="1.1" xmlns="http://www.w3.org/2000/svg" xmlns:xlink="http://www.w3.org/1999/xlink" xmlns:sketch="http://www.bohemiancoding.com/sketch/ns">
    <!-- Generator: Sketch 3.5.2 (25235) - http://www.bohemiancoding.com/sketch -->
    <title>Rectangle 54 Copy 6</title>
    <desc>Created with Sketch.</desc>
    <defs></defs>
    <g id="Frame" stroke="none" stroke-width="1" fill="none" fill-rule="evenodd" sketch:type="MSPage">
        <g id="frame" sketch:type="MSArtboardGroup" transform="translate(-24.000000, -24.000000)" fill="#5F5B59" opacity="0.6">
            <g id="Navbar" sketch:type="MSLayerGroup">
                <path d="M24,35 C24,34.4477153 24.4474894,34 24.9985023,34 L36.0014977,34 C36.5529553,34 37,34.4438648 37,35 L37,35 C37,35.5522847 36.5525106,36 36.0014977,36 L24.9985023,36 C24.4470447,36 24,35.5561352 24,35 L24,35 Z M24,30 C24,29.4477153 24.4474894,29 24.9985023,29 L36.0014977,29 C36.5529553,29 37,29.4438648 37,30 L37,30 C37,30.5522847 36.5525106,31 36.0014977,31 L24.9985023,31 C24.4470447,31 24,30.5561352 24,30 L24,30 Z M24,25 C24,24.4477153 24.4474894,24 24.9985023,24 L36.0014977,24 C36.5529553,24 37,24.4438648 37,25 L37,25 C37,25.5522847 36.5525106,26 36.0014977,26 L24.9985023,26 C24.4470447,26 24,25.5561352 24,25 L24,25 Z" id="Rectangle-54-Copy-6" sketch:type="MSShapeGroup"></path>
            </g>
        </g>
    </g>
</svg>