<?xml version="1.0" encoding="UTF-8" standalone="no"?>
<svg width="16px" height="16px" viewBox="0 0 16 16" version="1.1" xmlns="http://www.w3.org/2000/svg" xmlns:xlink="http://www.w3.org/1999/xlink" xmlns:sketch="http://www.bohemiancoding.com/sketch/ns">
    <!-- Generator: Sketch 3.5.1 (25234) - http://www.bohemiancoding.com/sketch -->
    <title>Spotlight</title>
    <desc>Created with Sketch.</desc>
    <defs></defs>
    <g id="Frame" stroke="none" stroke-width="1" fill="none" fill-rule="evenodd" sketch:type="MSPage">
        <g id="iPhone-Copy-2" sketch:type="MSArtboardGroup" transform="translate(-58.000000, -22.000000)" fill="#999796">
            <path d="M67.9611652,33.8595418 C66.9506855,34.5168021 65.7445961,34.898645 64.4493225,34.898645 C60.88746,34.898645 58,32.0111849 58,28.4493225 C58,24.88746 60.88746,22 64.4493225,22 C68.0111849,22 70.898645,24.88746 70.898645,28.4493225 C70.898645,30.0006105 70.3509401,31.4239753 69.4383567,32.5365904 L73.0671825,36.1654162 C73.4506136,36.5488473 73.4507246,37.1704008 73.0614101,37.5597153 C72.6747911,37.9463343 72.0450782,37.9434548 71.6671111,37.5654877 L67.9611652,33.8595418 Z M64.4493225,32.7090682 C66.8019151,32.7090682 68.7090682,30.8019151 68.7090682,28.4493225 C68.7090682,26.0967299 66.8019151,24.1895768 64.4493225,24.1895768 C62.0967299,24.1895768 60.1895768,26.0967299 60.1895768,28.4493225 C60.1895768,30.8019151 62.0967299,32.7090682 64.4493225,32.7090682 Z" id="Spotlight" sketch:type="MSShapeGroup"></path>
        </g>
    </g>
</svg>