<?xml version="1.0" encoding="UTF-8" standalone="no"?>
<svg width="24px" height="22px" viewBox="0 0 24 22" version="1.1" xmlns="http://www.w3.org/2000/svg" xmlns:xlink="http://www.w3.org/1999/xlink" xmlns:sketch="http://www.bohemiancoding.com/sketch/ns">
    <!-- Generator: Sketch 3.5.1 (25234) - http://www.bohemiancoding.com/sketch -->
    <title>Clip 2</title>
    <desc>Created with Sketch.</desc>
    <defs></defs>
    <g id="Frame" stroke="none" stroke-width="1" fill="none" fill-rule="evenodd" sketch:type="MSPage">
        <g id="sidebar-copy-7" sketch:type="MSArtboardGroup" transform="translate(-29.000000, -21.000000)" fill="#54A5FA">
            <path d="M49.6,22.8 L53,26.7 L41,42.8 L29,26.7 L32.4,22.8 L36.7,21 L45.3,21 L49.6,22.8 L49.6,22.8 Z M37.42,36.66 L34.22,30.88 L31.7,29 L37.42,36.66 L37.42,36.66 Z M46.8,31 L35.2,31 L41,41.4600005 L46.8,31 L46.8,31 Z M44.58,36.66 L47.78,30.88 L50.3,29 L44.58,36.66 L44.58,36.66 Z M34.4,30.02 L30.0199995,26.74 L32.6800005,23.68 L36.46,25.5 L34.4,30.02 L34.4,30.02 Z M37.2,25.8 L35.2,30.2 L46.8,30.2 L44.8,25.8 L37.2,25.8 L37.2,25.8 Z M47.6,30.02 L51.98,26.74 L49.32,23.68 L45.54,25.5 L47.6,30.02 L47.6,30.02 Z M44.8,25 L37.2,25 L33.5199995,23.2 L36.86,21.8 L45.14,21.8 L48.48,23.2 L44.8,25 L44.8,25 Z" id="Clip-2" sketch:type="MSShapeGroup"></path>
        </g>
    </g>
</svg>